<svg xmlns="http://www.w3.org/2000/svg" xml:space="preserve" width="2048" height="2048" style="shape-rendering:geometricPrecision;text-rendering:geometricPrecision;image-rendering:optimizeQuality;fill-rule:evenodd;clip-rule:evenodd"><defs><clipPath id="id0"><path d="M1024-.001c565.539 0 1024 458.462 1024 1024 0 565.539-458.462 1024-1024 1024-565.539 0-1024-458.462-1024-1024 0-565.54 458.462-1024 1024-1024z"/></clipPath><style>.fil9{fill:#ef5350}.fil1{fill:#f06292}.fil5{fill:#5d4037;fill-rule:nonzero}</style></defs><g id="Layer_x0020_1"><path d="M1024-.001c565.539 0 1024 458.462 1024 1024 0 565.539-458.462 1024-1024 1024-565.539 0-1024-458.462-1024-1024 0-565.54 458.462-1024 1024-1024z" style="fill:#f48fb1"/><g style="clip-path:url(#id0)"><g id="_289348184"><path id="_2909699521" class="fil1" d="M1255.68 869.805 2391.57 2005.69l.18 8.96-.01 8.95-.22 8.93-.43 8.91-.62 8.88-.82 8.86-1.02 8.82-1.21 8.79-1.41 8.76-1.6 8.71-1.8 8.66-1.99 8.62-2.17 8.57-2.37 8.51-2.55 8.46-2.75 8.39-2.92 8.33-3.11 8.26-3.3 8.19-3.47 8.12-3.66 8.04-3.83 7.96-4.02 7.88-4.19 7.79-4.36 7.7-4.54 7.6-4.71 7.51-4.89 7.41-5.05 7.3-5.23 7.2-5.39 7.09-5.56 6.97-1135.88-1135.88 5.56-6.97 5.39-7.09 5.23-7.2 5.05-7.3 4.89-7.41 4.71-7.51 4.54-7.6 4.36-7.7 4.19-7.79 4.02-7.88 3.83-7.96 3.66-8.04 3.47-8.12 3.29-8.19 3.12-8.26 2.92-8.33 2.74-8.4 2.56-8.451 2.37-8.514 2.17-8.566 1.99-8.619 1.8-8.666 1.6-8.71 1.41-8.752 1.21-8.79 1.02-8.825.82-8.856.62-8.884.42-8.908.22-8.932.02-8.948z"/><path id="_290969976" class="fil1" d="M1139.6 602.979 2275.48 1738.86l6.42 7.21 6.29 7.32 6.14 7.43 6 7.53 5.85 7.65 5.69 7.74 5.54 7.84 5.37 7.95 5.21 8.04 5.03 8.14 4.86 8.23 4.68 8.32 4.49 8.42 4.31 8.5 4.11 8.6 3.92 8.67 3.71 8.76 3.51 8.85 3.3 8.92 3.08 9 2.87 9.08 2.64 9.16 2.42 9.22 2.18 9.3 1.95 9.37 1.71 9.44 1.47 9.5 1.22 9.57.96 9.63.71 9.69.45 9.75L1255.68 869.805l-.44-9.75-.71-9.691-.97-9.63-1.21-9.567-1.47-9.503-1.71-9.436-1.95-9.368-2.18-9.299-2.42-9.228-2.64-9.154-2.87-9.079-3.08-9.001-3.3-8.924-3.51-8.843-3.72-8.762-3.91-8.677-4.11-8.592-4.31-8.505-4.49-8.415-4.68-8.325-4.86-8.232-5.03-8.138-5.21-8.042-5.37-7.944-5.54-7.844-5.69-7.743-5.85-7.64-6-7.536-6.14-7.428-6.29-7.32z"/><path id="_290971080" class="fil1" d="m1232.49 1194.65 1135.88 1135.88.01-.01h.01l.02-.01h.01l.01-.01h.01l.02-.01.01-.01L1232.59 1194.6l-.01.01h-.02l-.01.01-.01.01h-.01l-.02.01h-.01z"/><path id="_290970792" class="fil1" d="m1240.23 1201.91 1135.88 1135.88 1.6 1.66 1.4 1.78 1.2 1.87 1 1.96.81 2.03.6 2.09.4 2.12.21 2.15v2.16l-.2 2.15-.41 2.14-.6 2.09-.81 2.04-1.01 1.97-1.22 1.89-1.42 1.8L1241.78 1233.8l1.42-1.79 1.22-1.89 1.01-1.97.81-2.04.6-2.1.41-2.13.19-2.15v-2.16l-.2-2.15-.4-2.12-.6-2.09-.81-2.03-1-1.96-1.2-1.88-1.4-1.77z"/><path id="_290970552" class="fil1" d="m1241.78 1233.8 1135.88 1135.89-.07.07-.07.08-.07.08-.06.08-.07.07-.07.08-.08.08-.07.07-1135.88-1135.88.07-.08.07-.07.07-.08.07-.08.07-.07.07-.08.07-.08z"/><path id="_290970672" class="fil1" d="M1241.22 1234.42 2377.1 2370.3l-1.69 1.63-1.82 1.43-1.93 1.22-2.01 1-2.08.8-2.14.6-2.18.38-2.2.17-2.2-.04-2.2-.25-2.17-.46-2.13-.67-2.07-.88-1.99-1.1-1.9-1.31-1.8-1.53-1135.88-1135.88 1.79 1.53 1.91 1.31 1.99 1.09 2.07.89 2.13.67 2.17.46 2.19.25 2.21.04 2.2-.17 2.18-.39 2.14-.59 2.08-.8 2.01-1.01 1.93-1.22 1.81-1.42z"/><path id="_290970408" class="fil1" d="m1208.71 1235.41 1135.88 1135.88-7.66-7.18-1135.88-1135.88z"/><path id="_290970720" class="fil1" d="m1201.05 1228.23 1135.88 1135.88-66.09-61.96-1135.88-1135.88z"/><path id="_290970840" class="fil1" d="m1134.96 1166.27 1135.88 1135.88-6.9 6.02-7.01 5.89-7.1 5.76-7.19 5.63-7.29 5.49-7.39 5.35-7.47 5.21-7.56 5.06-7.65 4.91-7.74 4.75-7.82 4.6-7.9 4.43-7.99 4.26-8.06 4.1-8.15 3.92-8.22 3.75-8.3 3.56-8.37 3.38-8.45 3.2-8.51 3-8.59 2.8-8.65 2.61-8.72 2.41-8.79 2.19-8.85 1.99-8.91 1.78-8.98 1.56-9.03 1.33-9.09 1.12-9.14.88-9.2.65-9.26.42L872.681 1278.28l9.254-.42 9.2-.65 9.147-.89 9.09-1.11 9.031-1.34 8.973-1.55 8.913-1.78 8.85-1.99 8.786-2.2 8.72-2.4 8.655-2.61 8.586-2.8 8.516-3.01 8.444-3.19 8.374-3.38 8.3-3.56 8.22-3.75 8.14-3.92 8.07-4.1 7.99-4.26 7.9-4.44 7.82-4.59 7.74-4.75 7.65-4.91 7.56-5.06 7.47-5.21 7.38-5.35 7.29-5.49 7.2-5.63 7.1-5.76 7.01-5.89z"/><path id="_290970360" class="fil1" d="M872.681 1278.28 2008.56 2414.16l-9.81.2-9.8-.05-9.77-.3-9.75-.53-9.71-.78-9.68-1.01-9.64-1.24-9.59-1.48-9.55-1.72-9.49-1.95-9.44-2.17-9.37-2.4-9.31-2.63-9.24-2.86-9.17-3.08-9.08-3.3-9.01-3.52-8.91-3.73-8.83-3.96-8.73-4.17-8.63-4.38-8.52-4.6-8.42-4.8-8.3-5.01-8.18-5.23-8.07-5.42-7.94-5.63-7.81-5.83-7.67-6.04-7.53-6.23-7.39-6.42L596.334 1178l7.392 6.43 7.535 6.23 7.673 6.04 7.808 5.83 7.938 5.63 8.065 5.42 8.185 5.22 8.303 5.02 8.416 4.8 8.524 4.6 8.629 4.38 8.729 4.17 8.825 3.95 8.916 3.74 9.004 3.52 9.086 3.3 9.165 3.08 9.239 2.85 9.309 2.63 9.376 2.41 9.436 2.17 9.494 1.95 9.545 1.71 9.594 1.48 9.639 1.25 9.679 1.01 9.715.78 9.745.53 9.774.29 9.795.05z"/><path id="_289347704" class="fil1" d="m1232.49 1194.65.1-.046-.1.046zm-99.45-598.767c70.636 75.111 119.286 169.614 122.646 273.924 3.084 95.685-28.83 189.357-89.012 263.138l65.816 61.706 7.744 7.26c9.047 8.512 9.67 22.625 1.548 31.896-.182.206-.367.412-.559.615-8.703 9.251-23.26 9.694-32.51.99l-7.663-7.183-66.087-61.96c-73.134 64.848-163.291 108.823-262.281 112.013-104.764 3.375-207.118-35.205-283.591-106.902-76.856-72.056-121.493-170.834-124.885-276.103-3.376-104.763 35.205-207.117 106.902-283.59 72.057-76.855 170.835-121.493 276.103-124.884 97.04-3.128 192.014 29.745 266.266 91.59l.537-.573 16.833 15.854c.658.619.371.33 1.132 1.103l.683.697.215.232.164.176z"/></g></g><path d="M1024-.001c565.539 0 1024 458.462 1024 1024 0 565.539-458.462 1024-1024 1024-565.539 0-1024-458.462-1024-1024 0-565.54 458.462-1024 1024-1024z" style="fill:none"/><circle cx="859.945" cy="882.541" style="fill:#bbdefb" r="308.098"/><path d="M1154.28 1121.32c-9.25-8.704-23.808-8.26-32.511.99-8.705 9.251-8.26 23.81.99 32.513l85.955 80.587c9.25 8.703 23.807 8.26 32.51-.991 8.704-9.25 8.261-23.808-.99-32.511l-85.954-80.588z" style="fill:#37474f;fill-rule:nonzero"/><path class="fil5" d="m1295.23 1205.05 256.805 200.646a23.194 23.194 0 0 1 3.22 2.526l-15.77 16.82 15.761-16.751c30.493 28.587 34.302 63.866 22.733 93.602-4.371 11.236-10.971 21.564-19.155 30.292-8.184 8.728-18.05 15.972-28.954 21.045-28.471 13.246-63.294 11.933-93.526-15.47a23.159 23.159 0 0 1-2.847-2.698l17.216-15.334-17.2 15.31-218.6-245.412c-19.23-18.774-21.482-41.81-13.888-61.333 2.88-7.406 7.21-14.187 12.562-19.897 5.352-5.708 11.827-10.456 19.003-13.795 19.133-8.901 42.499-8.02 62.64 10.449z"/><path d="M1557.21 1533.86c-7.856 7.983-17.147 14.628-27.347 19.374-28.472 13.246-63.294 11.932-93.527-15.47a23.159 23.159 0 0 1-2.847-2.698l17.216-15.334-17.2 15.31-218.6-245.412c-19.23-18.775-21.482-41.81-13.888-61.333 2.881-7.406 7.21-14.188 12.563-19.897.233-.25.47-.498.707-.742l342.923 326.202z" style="fill:#553a31;fill-rule:nonzero"/><path class="fil5" d="m1295.23 1205.05 256.805 200.646a23.194 23.194 0 0 1 3.22 2.526l-15.77 16.82 15.761-16.751c30.493 28.587 34.302 63.866 22.733 93.602-4.371 11.236-10.971 21.564-19.155 30.292-.51.545-1.025 1.08-1.548 1.613l-.058.058-342.923-326.202.362-.37c5.137-5.214 11.229-9.564 17.933-12.683 19.133-8.901 42.498-8.02 62.64 10.449z"/><path d="m1113.47 578.391.537-.573 16.834 15.854c.657.619.37.33 1.131 1.103l.683.697.215.233.164.176c70.636 75.11 119.286 169.614 122.646 273.924 3.127 97.042-29.744 192.014-91.59 266.266l.573.536-15.854 16.834c-.619.658-.33.37-1.103 1.132l-.697.682-.233.215-.176.165c-75.11 70.635-169.615 119.284-273.924 122.646-104.764 3.375-207.118-35.206-283.59-106.902-76.856-72.056-121.494-170.834-124.886-276.103-3.375-104.763 35.205-207.117 106.902-283.59 72.057-76.855 170.835-121.493 276.103-124.884 97.04-3.128 192.014 29.744 266.266 91.59zm-29.484 511.526c54.46-58.82 83.694-137.087 81.111-217.23-2.565-79.596-32.133-158.961-94.352-211.031l-.375-.313-.908-.793-.622-.571c-.83-.767-.568-.517-1.298-1.257l-.225-.229c-58.82-54.46-137.087-83.692-217.23-81.11C768.86 580 692.782 614.47 637.194 673.76c-55.292 58.975-85.016 137.843-82.411 218.634 2.617 81.226 37.085 157.305 96.374 212.892 58.976 55.292 137.843 85.017 218.635 82.413 79.596-2.567 158.961-32.134 211.031-94.353l.313-.374.793-.91.571-.621c.767-.83.518-.568 1.257-1.298l.228-.224z" style="fill:#6d8591"/><path d="M859.945 542.028c188.06 0 340.513 152.453 340.513 340.513 0 188.06-152.453 340.513-340.513 340.513-188.06 0-340.513-152.453-340.513-340.513 0-188.06 152.453-340.513 340.513-340.513zm224.046 547.889c54.46-58.82 83.694-137.087 81.111-217.23-2.565-79.596-32.133-158.961-94.352-211.031l-.375-.313-.908-.793-.622-.571c-.83-.767-.569-.517-1.298-1.257l-.225-.229c-58.82-54.46-137.087-83.692-217.23-81.11C768.865 580 692.787 614.47 637.2 673.76c-55.292 58.975-85.016 137.843-82.411 218.634 2.617 81.226 37.085 157.305 96.374 212.892 58.976 55.292 137.843 85.017 218.635 82.413 79.596-2.567 158.961-32.134 211.031-94.353l.313-.374.793-.91.571-.621c.767-.83.518-.568 1.257-1.298l.228-.224z" style="fill:#78909c"/><path class="fil9" d="M1048.79 882.949c-7.465-3.914-14.016-9.304-18.533-16.77-7.874-13.015-9.046-33.586-9.046-48.421v-46.084c0-9.056-.63-27.99-7.243-35.116-6.292-6.782-20.97-7.658-29.503-7.658h-12.643v-31.444h14.588c17.68 0 41.637 2.168 54.586 15.825 13.257 13.983 14.836 42.132 14.836 60.273v46.148c0 11.472 1.275 28.566 9.378 37.58 5.497 6.116 14.326 8.547 22.204 9.517l4.954.609v30.654l-4.954.611c-7.894.972-16.696 3.411-22.211 9.524-8.1 8.974-9.371 26.006-9.371 37.443v46.406c0 17.984-1.537 46.308-14.797 60.107-12.87 13.392-37.177 15.473-54.625 15.473h-14.588v-31.444h5.644c1.568 0 3.159.101 4.723.208 1.261.085 2.567.182 3.831.182 8.298 0 22.051-.916 28.11-7.558 6.474-7.1 7.081-26.117 7.081-35.087v-45.825c0-14.849 1.164-35.456 9.046-48.486 4.517-7.465 11.063-12.819 18.533-16.667zM671.102 882.949c7.47 3.848 14.016 9.202 18.532 16.666 7.882 13.03 9.046 33.638 9.046 48.487v45.825c0 8.97.607 27.987 7.081 35.087 6.06 6.642 19.813 7.557 28.11 7.557 1.265 0 2.57-.096 3.831-.181 1.565-.107 3.156-.208 4.725-.208h5.643v31.444h-14.588c-17.448 0-41.754-2.08-54.625-15.473-13.26-13.8-14.797-42.123-14.797-60.107V945.64c0-11.437-1.272-28.468-9.37-37.443-5.516-6.113-14.32-8.552-22.212-9.524l-4.954-.61v-30.655l4.954-.61c7.878-.97 16.708-3.4 22.204-9.516 8.103-9.014 9.378-26.108 9.378-37.58v-46.148c0-18.14 1.578-46.29 14.836-60.273 12.947-13.657 36.905-15.826 54.586-15.826h14.588V728.9h-12.644c-8.532 0-23.21.876-29.501 7.658-6.613 7.126-7.245 26.06-7.245 35.116v46.084c0 14.835-1.172 35.406-9.046 48.422-4.516 7.465-11.067 12.855-18.532 16.769z"/><path style="fill:#ffb300" d="m736.335 882.356 60.493 39.642v37.687l-93.477-63.242v-28.509l93.477-62.463v37.583z"/><path style="fill:#8bc34a" d="m958.824 882.356-60.414-39.305v-37.58l93.477 62.463v28.509l-93.477 63.242V922z"/><path style="fill:#455a64" d="m901.093 766.936-74.257 239.944-32.692-8.734L868.4 758.201z"/></g></svg>